HIERARCHY
ROOT Hips
{
	OFFSET 0.00000 0.00000 0.00000
	CHANNELS 6 Xposition Yposition Zposition Zrotation Yrotation Xrotation 
	JOINT LHipJoint
	{
		OFFSET 0 0 0
		CHANNELS 3 Zrotation Yrotation Xrotation
		JOINT LeftHip
		{
			OFFSET 1.75344 -1.53157 0.77399
			CHANNELS 3 Zrotation Yrotation Xrotation
			JOINT LeftKnee
			{
				OFFSET 2.25415 -6.19323 0.00000
				CHANNELS 3 Zrotation Yrotation Xrotation
				JOINT LeftAnkle
				{
					OFFSET 2.30342 -6.32861 0.00000
					CHANNELS 3 Zrotation Yrotation Xrotation
					JOINT LeftToe
					{
						OFFSET 0.10958 -0.30108 1.49206
						CHANNELS 3 Zrotation Yrotation Xrotation
						End Site
						{
							OFFSET 0.00000 -0.00000 0.77783
						}
					}
				}
			}
		}
	}
	JOINT RHipJoint
	{
		OFFSET 0 0 0
		CHANNELS 3 Zrotation Yrotation Xrotation
		JOINT RightHip
		{
			OFFSET -1.81912 -1.53156 0.77399
			CHANNELS 3 Zrotation Yrotation Xrotation
			JOINT RightKnee
			{
				OFFSET -2.22882 -6.12365 0.00000
				CHANNELS 3 Zrotation Yrotation Xrotation
				JOINT RightAnkle
				{
					OFFSET -2.21943 -6.09785 0.00000
					CHANNELS 3 Zrotation Yrotation Xrotation
					JOINT RightToe
					{
						OFFSET -0.18931 -0.52012 1.59379
						CHANNELS 3 Zrotation Yrotation Xrotation
						End Site
						{
							OFFSET -0.00000 -0.00000 0.84686
						}
					}
				}
			}
		}
	}
	JOINT lowerback
	{
		OFFSET 0 0 0
		CHANNELS 3 Zrotation Yrotation Xrotation
		JOINT Chest
		{
			OFFSET -0.00200 1.66634 -0.14248
			CHANNELS 3 Zrotation Yrotation Xrotation
			JOINT Chest2
			{
				OFFSET -0.00875 1.64542 0.09514
				CHANNELS 3 Zrotation Yrotation Xrotation
				JOINT lowerneck
				{
					OFFSET 0 0 0
					CHANNELS 3 Zrotation Yrotation Xrotation
					JOINT Neck
					{
						OFFSET 0.02257 1.59605 0.00839
						CHANNELS 3 Zrotation Yrotation Xrotation
						JOINT Head
						{
							OFFSET -0.10214 1.57530 -0.23335
							CHANNELS 3 Zrotation Yrotation Xrotation
							End Site
							{
								OFFSET -0.03588 1.60717 -0.08062
							}
						}
					}
				}
				JOINT LeftCollar
				{
					OFFSET 0 0 0
					CHANNELS 3 Zrotation Yrotation Xrotation
					JOINT LeftShoulder
					{
						OFFSET 2.54983 1.10186 0.40078
CHANNELS 3 Zrotation Xrotation Yrotation
						JOINT LeftElbow
						{
OFFSET 0 -4.288400 0.000000
CHANNELS 3 Zrotation Xrotation Yrotation
							JOINT LeftWrist
							{
OFFSET 0 -3.065520 -0.000000
CHANNELS 3 Zrotation Xrotation Yrotation
								JOINT lhand
								{
									OFFSET 0 0 0
CHANNELS 3 Zrotation Xrotation Yrotation
									JOINT LFingers
									{
OFFSET 0 -0.753040 0.000000
CHANNELS 3 Zrotation Xrotation Yrotation
										End Site
										{
OFFSET 0 -0.607120 0.000000
										}
									}
								}
								JOINT LThumb
								{
OFFSET 0 0.000000 0.000000
CHANNELS 3 Zrotation Xrotation Yrotation
									End Site
									{
OFFSET 0 -0.616390 0.616390
									}
								}
							}
						}
					}
				}
				JOINT RightCollar
				{
					OFFSET 0 0 0
					CHANNELS 3 Zrotation Yrotation Xrotation
					JOINT RightShoulder
					{
						OFFSET -2.60909 1.35448 0.21802
CHANNELS 3 Zrotation Xrotation Yrotation
						JOINT RightElbow
						{
OFFSET 0 -4.521720 -0.000000
CHANNELS 3 Zrotation Xrotation Yrotation
							JOINT RightWrist
							{
OFFSET 0 -2.891400 0.000000
CHANNELS 3 Zrotation Xrotation Yrotation
								JOINT rhand
								{
									OFFSET 0 0 0
CHANNELS 3 Zrotation Xrotation Yrotation
									JOINT RFingers
									{
OFFSET 0 -0.680540 0.000000
CHANNELS 3 Zrotation Xrotation Yrotation
										End Site
										{
OFFSET 0 -0.548670 0.000000
										}
									}
								}
								JOINT RThumb
								{
OFFSET 0 0.000000 0.000000
CHANNELS 3 Zrotation Xrotation Yrotation
									End Site
									{
OFFSET 0 -0.557050 0.557050
									}
								}
							}
						}
					}
				}
			}
		}
	}
}
MOTION
Frames: 4
Frame Time: 0.008333333333333333
8.692450 15.328131 -38.692679 -358.478344 6.553631 5.466666 0.000000 0.000000 0.000000 -22.191446 -15.109022 -13.117303 2.848081 10.444925 30.429756 1.609065 -1.149959 -23.655290 1.899988 -8.654316 -24.720019 0.000000 0.000000 0.000000 25.144479 1.496250 -16.806048 -3.470279 -11.419964 33.709676 -1.358386 -27.469108 -44.495490 -4.334576 -12.592317 37.861641 0.526893 1.950103 8.560355 0.468024 2.719333 -3.638376 -0.232795 1.308986 -8.662357 -7.270824 -6.578258 -1.967251 4.936727 -8.667601 0.800163 2.651563 -4.316768 1.169011 0.000000 0.000000 0.000000 4.443452 12.857211 -14.637009 19.613743 -30.174207 5.335870 8.249168 6.287814 32.559061 0.000000 0.000000 0.000000 -7.125000 0.000000 0.000000 -13.265603 -2.082586 -14.117298 0.000000 0.000000 0.000000 -6.441386 13.698336 21.925240 -14.442047 -23.362868 -3.001321 3.676368 30.885870 56.704355 0.000000 0.000000 0.000000 7.125000 0.000000 0.000000 84.805790 70.844736 -64.279484
8.784185 15.338291 -38.744780 -358.661102 8.404457 5.507258 0.000000 0.000000 0.000000 -22.396315 -16.128510 -12.871401 2.745873 10.271793 29.861397 1.545628 -1.490834 -23.080275 1.943176 -8.745466 -25.003044 0.000000 0.000000 0.000000 25.179654 1.134646 -17.033177 -3.506571 -11.473090 33.892662 -1.968793 -26.607975 -45.990030 -4.126002 -12.323528 36.890214 1.013758 1.690662 8.756404 0.626621 2.448746 -3.740574 -0.303697 1.152523 -8.875996 -7.864929 -6.914227 -1.488333 5.345849 -9.151562 1.028747 2.891301 -4.565822 1.247019 0.000000 0.000000 0.000000 4.907551 13.747303 -18.903877 20.290029 -30.990169 5.679944 5.389119 7.458463 31.583345 0.000000 0.000000 0.000000 -7.125000 0.000000 0.000000 -14.807642 -0.804132 -15.541807 0.000000 0.000000 0.000000 -6.571210 13.528564 26.196033 -16.253299 -25.861885 -3.756356 5.567367 24.765441 57.748081 0.000000 0.000000 0.000000 7.125000 0.000000 0.000000 88.327578 70.318635 -67.277746
8.872651 15.354457 -38.771872 -358.637861 9.233043 5.544638 0.000000 0.000000 0.000000 -22.907177 -17.140345 -12.239243 2.639578 10.087312 29.260009 1.499684 -0.507975 -23.011472 2.347096 -9.554180 -27.544992 0.000000 0.000000 0.000000 24.931444 1.832682 -16.988912 -3.579547 -11.578700 34.257650 -1.960334 -25.041719 -44.418854 -2.910092 -10.542369 30.757238 1.072301 1.706534 8.333521 0.719138 2.477796 -3.730602 -0.228583 1.169758 -8.619099 -8.212872 -7.172986 -0.570222 5.639875 -9.561806 0.789569 3.078365 -4.780959 1.074818 0.000000 0.000000 0.000000 5.363539 14.355957 -23.458872 20.728858 -31.510425 5.907600 2.586948 7.836450 30.579599 0.000000 0.000000 0.000000 -7.125000 0.000000 0.000000 -16.347759 0.434566 -16.929050 0.000000 0.000000 0.000000 -6.544723 12.820890 29.524044 -18.017543 -28.178247 -4.558261 0.669982 22.397713 54.829193 0.000000 0.000000 0.000000 7.125000 0.000000 0.000000 78.265465 71.569204 -58.650447
8.941035 15.345442 -38.793717 -358.575389 9.323993 5.219426 0.000000 0.000000 0.000000 -23.428203 -17.688021 -11.522473 2.605938 10.028056 29.067608 1.530099 -0.353382 -23.294393 1.878421 -8.608062 -24.576866 0.000000 0.000000 0.000000 24.682455 3.442619 -16.467488 -3.755661 -11.827873 35.125925 -1.509079 -23.632716 -41.094276 -1.549112 -7.838494 22.234024 1.181666 1.738646 8.350212 0.627738 2.524938 -3.644690 -0.392732 1.184451 -8.526297 -8.397522 -7.391845 0.035857 5.729028 -9.901608 0.772583 3.155888 -4.959424 1.004449 0.000000 0.000000 0.000000 5.850870 14.769485 -25.880613 20.718118 -31.497785 5.901960 2.474410 7.753827 31.555592 0.000000 0.000000 0.000000 -7.125000 0.000000 0.000000 -16.424670 -0.490584 -17.288452 0.000000 0.000000 0.000000 -6.220238 11.779752 32.692230 -20.051688 -30.703120 -5.558403 -4.120977 19.897027 51.485267 0.000000 0.000000 0.000000 7.125000 0.000000 0.000000 65.949801 72.290453 -48.090655
